<?xml version="1.0" encoding="UTF-8"?>
<svg width="500px" height="500px" viewBox="0 0 500 500" version="1.1" xmlns="http://www.w3.org/2000/svg" xmlns:xlink="http://www.w3.org/1999/xlink">
    <!-- Generator: Sketch 48.2 (47327) - http://www.bohemiancoding.com/sketch -->
    <title>mitrol_logo_red</title>
    <desc>Created with Sketch.</desc>
    <defs></defs>
    <g id="Main" stroke="none" stroke-width="1" fill="none" fill-rule="evenodd">
        <g id="mitrol_logo_red" fill="#D1131A">
            <g id="Isologo/Red" transform="translate(107.500000, 117.813550)">
                <path d="M203.154516,179.861234 C192.605982,172.894445 178.125923,168.511038 165.276601,165.887539 C112.987322,155.221459 77.6173386,117.380786 72.5813936,65.2760922 C70.091428,39.4338362 72.5433466,24.1119692 77.194594,7.79348928 C80.3736333,-3.38145473 74.1296957,-0.575313852 69.4108092,4.11320068 C61.0827407,12.3848763 50.7519197,20.4359035 46.2771681,45.6932829 C43.8347613,59.4927815 44.5946447,69.1453572 44.9539776,73.4390272 C45.4623279,79.6499101 45.782557,82.6376372 44.164502,78.3133509 C43.1012994,75.4818724 41.0118842,66.5968154 40.4073595,56.8629482 C39.6295094,44.3503893 39.4508998,38.8542383 39.6210545,35.8622882 C40.1484284,26.2508862 38.4542794,26.065077 33.5927166,31.2096686 C29.309257,35.7472132 23.1836879,49.8465403 21.0837041,65.5474158 C19.0714398,80.6285755 20.1864287,95.9673343 22.0623578,104.388924 C23.2301898,109.60425 22.0972343,108.509454 21.5920545,107.067321 C18.2174958,97.4062997 15.0881289,80.2126163 14.5787217,70.3151104 C14.2204456,63.4623412 10.2815229,67.7465097 8.43095841,73.0473499 C3.3960703,87.4486169 2.32864021,105.808886 6.15764936,119.237822 C8.21113122,126.446374 11.768527,134.718049 15.6450949,141.312164 C16.4039214,142.595936 15.8628084,142.495642 15.0458544,141.685894 C11.5095959,138.150241 7.56010455,132.609749 4.36626915,125.538443 C-0.852512861,113.980267 -0.504805433,125.85094 0.887081141,131.296416 C6.4969019,153.220843 16.3859548,164.734678 30.8374787,174.333411 C60.9083585,194.29734 78.2567398,197.271343 101.566877,200.770045 C129.856945,205.011984 155.799724,202.125607 168.830826,203.51073 C181.869326,204.892686 187.492886,206.543854 192.294208,211.971382 C195.575763,215.677008 197.356574,220.263117 198.403924,225.637858 C199.74191,232.498018 197.601766,235.588151 198.834066,235.78135 C199.430136,235.873199 201.142252,235.420289 201.792222,235.141576 C212.032153,230.83207 220.987997,221.859387 220.327458,207.11395 C219.886747,197.184772 213.695653,186.821688 203.154516,179.861234 M54.4255702,228.659369 C56.0943545,227.701818 58.6530161,226.62497 55.8174568,230.000151 C48.4405636,238.795471 43.5134754,243.97279 37.2114103,249.246181 C28.9826868,256.140124 32.4766709,256.625762 37.0211753,256.104229 C41.5625091,255.572139 45.9907587,255.246973 56.7136753,250.577462 C65.8047978,246.620571 73.7851589,240.258718 76.5530791,237.610937 C78.735498,235.530086 78.5272963,236.443296 77.8900089,239.188204 C76.4178008,245.51944 75.5036156,252.02804 76.3290244,258.743564 C77.7483894,270.275346 80.4518411,268.100534 83.6647,260.444352 C92.8699635,238.500921 110.991967,213.75874 137.47903,207.598532 C138.300211,207.4085 139.248216,206.488956 137.253918,206.575526 C132.232769,206.796174 120.868338,206.509015 108.829629,205.379379 C92.0075646,203.801057 78.4374631,200.770045 67.5623584,197.632404 C59.3537153,195.265448 63.4934417,198.331299 42.7525351,213.586655 C27.9480194,224.472328 15.735985,230.735998 7.28320684,234.497578 C-2.97997503,239.059404 4.19505759,240.476199 13.5482817,240.081355 C31.4620839,239.336007 47.8550623,232.416726 54.4255702,228.659369 M209.950136,177.968303 C209.566495,178.160446 208.503292,178.383206 207.435862,177.620966 C199.851824,172.186048 186.130591,167.744575 178.881579,165.641553 C174.824287,164.46441 176.278529,163.436125 179.54106,163.096178 C234.559155,157.311812 275.325473,109.728826 279.685027,56.1714425 C279.976721,52.5946158 281.508113,52.101588 283.204376,54.8433291 C285.087703,57.8764528 285.839131,75.5853343 280.666851,96.1710909 C273.80465,123.459702 258.206431,147.255946 233.415631,164.416902 C225.99752,169.54988 217.541572,174.20989 209.950136,177.968303" id="Fill-1"></path>
            </g>
        </g>
    </g>
</svg>